<svg width="810" height="200" viewBox="0 0 810 200" fill="none" xmlns="http://www.w3.org/2000/svg">
<path d="M88.8889 77.7778V0L0 122.222H66.6667V200L155.556 77.7778H88.8889Z" fill="#ECEFF4"/>
<path d="M281 47.3V64.25H237.35V91.1H270.8V107.75H237.35V152H216.35V47.3H281Z" fill="#ECEFF4"/>
<path d="M290.491 110.15C290.491 101.75 292.141 94.3 295.441 87.8C298.841 81.3 303.391 76.3 309.091 72.8C314.891 69.3 321.341 67.55 328.441 67.55C334.641 67.55 340.041 68.8 344.641 71.3C349.341 73.8 353.091 76.95 355.891 80.75V68.9H377.041V152H355.891V139.85C353.191 143.75 349.441 147 344.641 149.6C339.941 152.1 334.491 153.35 328.291 153.35C321.291 153.35 314.891 151.55 309.091 147.95C303.391 144.35 298.841 139.3 295.441 132.8C292.141 126.2 290.491 118.65 290.491 110.15ZM355.891 110.45C355.891 105.35 354.891 101 352.891 97.4C350.891 93.7 348.191 90.9 344.791 89C341.391 87 337.741 86 333.841 86C329.941 86 326.341 86.95 323.041 88.85C319.741 90.75 317.041 93.55 314.941 97.25C312.941 100.85 311.941 105.15 311.941 110.15C311.941 115.15 312.941 119.55 314.941 123.35C317.041 127.05 319.741 129.9 323.041 131.9C326.441 133.9 330.041 134.9 333.841 134.9C337.741 134.9 341.391 133.95 344.791 132.05C348.191 130.05 350.891 127.25 352.891 123.65C354.891 119.95 355.891 115.55 355.891 110.45Z" fill="#ECEFF4"/>
<path d="M429.351 153.35C422.551 153.35 416.451 152.15 411.051 149.75C405.651 147.25 401.351 143.9 398.151 139.7C395.051 135.5 393.351 130.85 393.051 125.75H414.201C414.601 128.95 416.151 131.6 418.851 133.7C421.651 135.8 425.101 136.85 429.201 136.85C433.201 136.85 436.301 136.05 438.501 134.45C440.801 132.85 441.951 130.8 441.951 128.3C441.951 125.6 440.551 123.6 437.751 122.3C435.051 120.9 430.701 119.4 424.701 117.8C418.501 116.3 413.401 114.75 409.401 113.15C405.501 111.55 402.101 109.1 399.201 105.8C396.401 102.5 395.001 98.05 395.001 92.45C395.001 87.85 396.301 83.65 398.901 79.85C401.601 76.05 405.401 73.05 410.301 70.85C415.301 68.65 421.151 67.55 427.851 67.55C437.751 67.55 445.651 70.05 451.551 75.05C457.451 79.95 460.701 86.6 461.301 95H441.201C440.901 91.7 439.501 89.1 437.001 87.2C434.601 85.2 431.351 84.2 427.251 84.2C423.451 84.2 420.501 84.9 418.401 86.3C416.401 87.7 415.401 89.65 415.401 92.15C415.401 94.95 416.801 97.1 419.601 98.6C422.401 100 426.751 101.45 432.651 102.95C438.651 104.45 443.601 106 447.501 107.6C451.401 109.2 454.751 111.7 457.551 115.1C460.451 118.4 461.951 122.8 462.051 128.3C462.051 133.1 460.701 137.4 458.001 141.2C455.401 145 451.601 148 446.601 150.2C441.701 152.3 435.951 153.35 429.351 153.35Z" fill="#ECEFF4"/>
<path d="M503.739 86.15V126.35C503.739 129.15 504.389 131.2 505.689 132.5C507.089 133.7 509.389 134.3 512.589 134.3H522.339V152H509.139C491.439 152 482.589 143.4 482.589 126.2V86.15H472.689V68.9H482.589V48.35H503.739V68.9H522.339V86.15H503.739Z" fill="#ECEFF4"/>
<path d="M613.794 79.7C613.794 85.3 612.444 90.55 609.744 95.45C607.144 100.35 602.994 104.3 597.294 107.3C591.694 110.3 584.594 111.8 575.994 111.8H558.444V152H537.444V47.3H575.994C584.094 47.3 590.994 48.7 596.694 51.5C602.394 54.3 606.644 58.15 609.444 63.05C612.344 67.95 613.794 73.5 613.794 79.7ZM575.094 94.85C580.894 94.85 585.194 93.55 587.994 90.95C590.794 88.25 592.194 84.5 592.194 79.7C592.194 69.5 586.494 64.4 575.094 64.4H558.444V94.85H575.094Z" fill="#ECEFF4"/>
<path d="M623.304 110.15C623.304 101.75 624.954 94.3 628.254 87.8C631.654 81.3 636.203 76.3 641.904 72.8C647.703 69.3 654.154 67.55 661.254 67.55C667.454 67.55 672.854 68.8 677.453 71.3C682.154 73.8 685.904 76.95 688.703 80.75V68.9H709.854V152H688.703V139.85C686.003 143.75 682.253 147 677.453 149.6C672.753 152.1 667.304 153.35 661.104 153.35C654.104 153.35 647.703 151.55 641.904 147.95C636.203 144.35 631.654 139.3 628.254 132.8C624.954 126.2 623.304 118.65 623.304 110.15ZM688.703 110.45C688.703 105.35 687.703 101 685.703 97.4C683.703 93.7 681.004 90.9 677.604 89C674.203 87 670.554 86 666.654 86C662.753 86 659.154 86.95 655.854 88.85C652.554 90.75 649.854 93.55 647.754 97.25C645.754 100.85 644.754 105.15 644.754 110.15C644.754 115.15 645.754 119.55 647.754 123.35C649.854 127.05 652.554 129.9 655.854 131.9C659.254 133.9 662.854 134.9 666.654 134.9C670.554 134.9 674.203 133.95 677.604 132.05C681.004 130.05 683.703 127.25 685.703 123.65C687.703 119.95 688.703 115.55 688.703 110.45Z" fill="#ECEFF4"/>
<path d="M809.864 68.9L758.414 191.3H736.064L754.064 149.9L720.764 68.9H744.314L765.764 126.95L787.514 68.9H809.864Z" fill="#ECEFF4"/>
</svg>
