<?xml version="1.0" standalone="no"?>
<!DOCTYPE svg PUBLIC "-//W3C//DTD SVG 20010904//EN"
 "http://www.w3.org/TR/2001/REC-SVG-20010904/DTD/svg10.dtd">
<svg version="1.0" xmlns="http://www.w3.org/2000/svg"
 width="400.000000pt" height="400.000000pt" viewBox="0 0 400.000000 400.000000"
 preserveAspectRatio="xMidYMid meet">
<metadata>
Created by potrace 1.14, written by Peter Selinger 2001-2017
</metadata>
<g transform="translate(0.000000,400.000000) scale(0.100000,-0.100000)"
fill="#000000" stroke="none">
<path d="M1760 3985 c-437 -54 -832 -243 -1149 -549 -623 -601 -788 -1536
-407 -2311 443 -902 1467 -1335 2421 -1024 419 137 801 430 1048 804 384 584
432 1342 123 1970 -308 627 -900 1040 -1598 1115 -126 13 -306 11 -438 -5z
m796 -1707 l416 -3 -542 -745 c-298 -410 -548 -752 -556 -760 -12 -12 -14 49
-14 468 l0 482 -414 2 -413 3 551 758 551 758 3 -481 2 -480 416 -2z"/>
</g>
</svg>
